<svg width="180" height="168" viewBox="0 0 180 168" fill="none" xmlns="http://www.w3.org/2000/svg">
<rect width="180" height="168" fill="white"/>
<rect x="38" y="155" width="142" height="9" fill="#E5E5E5"/>
<rect x="38" y="155" width="71" height="9" fill="#070707"/>
<path d="M3.92 157.77C4.86267 157.77 5.656 158.055 6.3 158.624C6.944 159.184 7.266 159.968 7.266 160.976C7.266 161.984 6.92533 162.773 6.244 163.342C5.572 163.911 4.746 164.196 3.766 164.196C2.97267 164.196 2.27267 164.019 1.666 163.664C1.05933 163.309 0.620667 162.787 0.35 162.096L2.002 161.13C2.24467 161.914 2.83267 162.306 3.766 162.306C4.26067 162.306 4.64333 162.189 4.914 161.956C5.194 161.713 5.334 161.387 5.334 160.976C5.334 160.575 5.19867 160.253 4.928 160.01C4.65733 159.767 4.28867 159.646 3.822 159.646H0.854L1.246 154.2H6.804V156.006H3.038L2.912 157.77H3.92ZM11.4532 157.77C12.3959 157.77 13.1892 158.055 13.8332 158.624C14.4772 159.184 14.7992 159.968 14.7992 160.976C14.7992 161.984 14.4585 162.773 13.7772 163.342C13.1052 163.911 12.2792 164.196 11.2992 164.196C10.5059 164.196 9.80587 164.019 9.1992 163.664C8.59254 163.309 8.15387 162.787 7.8832 162.096L9.5352 161.13C9.77787 161.914 10.3659 162.306 11.2992 162.306C11.7939 162.306 12.1765 162.189 12.4472 161.956C12.7272 161.713 12.8672 161.387 12.8672 160.976C12.8672 160.575 12.7319 160.253 12.4612 160.01C12.1905 159.767 11.8219 159.646 11.3552 159.646H8.3872L8.7792 154.2H14.3372V156.006H10.5712L10.4452 157.77H11.4532ZM19.6057 157.966C19.1577 158.405 18.5977 158.624 17.9257 158.624C17.2537 158.624 16.689 158.4 16.2317 157.952C15.7837 157.504 15.5597 156.958 15.5597 156.314C15.5597 155.67 15.7837 155.124 16.2317 154.676C16.689 154.228 17.2537 154.004 17.9257 154.004C18.5977 154.004 19.1577 154.228 19.6057 154.676C20.0537 155.115 20.2777 155.661 20.2777 156.314C20.2777 156.967 20.0537 157.518 19.6057 157.966ZM16.5537 162.516L22.9377 155.418L23.7917 155.894L17.3937 163.006L16.5537 162.516ZM17.2817 156.958C17.4497 157.126 17.6597 157.21 17.9117 157.21C18.1637 157.21 18.3737 157.126 18.5417 156.958C18.7097 156.781 18.7937 156.566 18.7937 156.314C18.7937 156.062 18.7097 155.852 18.5417 155.684C18.3737 155.516 18.1637 155.432 17.9117 155.432C17.6597 155.432 17.4497 155.516 17.2817 155.684C17.123 155.852 17.0437 156.062 17.0437 156.314C17.0437 156.566 17.123 156.781 17.2817 156.958ZM24.3377 163.496C23.8897 163.944 23.3297 164.168 22.6577 164.168C21.9857 164.168 21.4257 163.944 20.9777 163.496C20.5297 163.048 20.3057 162.502 20.3057 161.858C20.3057 161.214 20.5297 160.668 20.9777 160.22C21.4257 159.772 21.9857 159.548 22.6577 159.548C23.3297 159.548 23.8897 159.772 24.3377 160.22C24.7857 160.668 25.0097 161.214 25.0097 161.858C25.0097 162.502 24.7857 163.048 24.3377 163.496ZM22.0277 162.502C22.1957 162.67 22.4057 162.754 22.6577 162.754C22.9097 162.754 23.115 162.665 23.2737 162.488C23.4417 162.311 23.5257 162.101 23.5257 161.858C23.5257 161.606 23.4417 161.396 23.2737 161.228C23.115 161.051 22.9097 160.962 22.6577 160.962C22.4057 160.962 22.1957 161.051 22.0277 161.228C21.869 161.396 21.7897 161.606 21.7897 161.858C21.7897 162.11 21.869 162.325 22.0277 162.502Z" fill="#828282"/>
<path d="M60.7748 123.196C59.3001 123.196 58.0821 122.706 57.1208 121.726C56.1595 120.746 55.6788 119.537 55.6788 118.1C55.6788 116.653 56.1595 115.445 57.1208 114.474C58.0821 113.494 59.3001 113.004 60.7748 113.004C61.6615 113.004 62.4781 113.214 63.2248 113.634C63.9808 114.045 64.5688 114.605 64.9888 115.314L63.3228 116.28C63.0801 115.841 62.7348 115.501 62.2868 115.258C61.8388 115.006 61.3348 114.88 60.7748 114.88C59.8228 114.88 59.0528 115.179 58.4648 115.776C57.8861 116.373 57.5968 117.148 57.5968 118.1C57.5968 119.043 57.8861 119.813 58.4648 120.41C59.0528 121.007 59.8228 121.306 60.7748 121.306C61.3348 121.306 61.8388 121.185 62.2868 120.942C62.7441 120.69 63.0895 120.349 63.3228 119.92L64.9888 120.886C64.5688 121.595 63.9855 122.16 63.2388 122.58C62.4921 122.991 61.6708 123.196 60.7748 123.196ZM69.5216 123.196C68.551 123.196 67.7343 122.981 67.0716 122.552C66.409 122.113 65.9423 121.521 65.6716 120.774L67.3236 119.808C67.7063 120.807 68.4576 121.306 69.5776 121.306C70.119 121.306 70.5156 121.208 70.7676 121.012C71.0196 120.816 71.1456 120.569 71.1456 120.27C71.1456 119.925 70.9916 119.659 70.6836 119.472C70.3756 119.276 69.825 119.066 69.0316 118.842C68.593 118.711 68.2196 118.581 67.9116 118.45C67.613 118.319 67.3096 118.147 67.0016 117.932C66.703 117.708 66.4743 117.428 66.3156 117.092C66.157 116.756 66.0776 116.364 66.0776 115.916C66.0776 115.029 66.3903 114.325 67.0156 113.802C67.6503 113.27 68.411 113.004 69.2976 113.004C70.091 113.004 70.7863 113.2 71.3836 113.592C71.9903 113.975 72.4616 114.511 72.7976 115.202L71.1736 116.14C70.7816 115.3 70.1563 114.88 69.2976 114.88C68.8963 114.88 68.579 114.973 68.3456 115.16C68.1216 115.337 68.0096 115.571 68.0096 115.86C68.0096 116.168 68.1356 116.42 68.3876 116.616C68.649 116.803 69.1436 117.008 69.8716 117.232C70.1703 117.325 70.3943 117.4 70.5436 117.456C70.7023 117.503 70.9123 117.582 71.1736 117.694C71.4443 117.797 71.6496 117.895 71.7896 117.988C71.939 118.081 72.107 118.207 72.2936 118.366C72.4803 118.525 72.6203 118.688 72.7136 118.856C72.8163 119.024 72.9003 119.229 72.9656 119.472C73.0403 119.705 73.0776 119.962 73.0776 120.242C73.0776 121.147 72.7463 121.866 72.0836 122.398C71.4303 122.93 70.5763 123.196 69.5216 123.196ZM77.383 123.196C76.4123 123.196 75.5956 122.981 74.933 122.552C74.2703 122.113 73.8036 121.521 73.533 120.774L75.185 119.808C75.5676 120.807 76.319 121.306 77.439 121.306C77.9803 121.306 78.377 121.208 78.629 121.012C78.881 120.816 79.007 120.569 79.007 120.27C79.007 119.925 78.853 119.659 78.545 119.472C78.237 119.276 77.6863 119.066 76.893 118.842C76.4543 118.711 76.081 118.581 75.773 118.45C75.4743 118.319 75.171 118.147 74.863 117.932C74.5643 117.708 74.3356 117.428 74.177 117.092C74.0183 116.756 73.939 116.364 73.939 115.916C73.939 115.029 74.2516 114.325 74.877 113.802C75.5116 113.27 76.2723 113.004 77.159 113.004C77.9523 113.004 78.6476 113.2 79.245 113.592C79.8516 113.975 80.323 114.511 80.659 115.202L79.035 116.14C78.643 115.3 78.0176 114.88 77.159 114.88C76.7576 114.88 76.4403 114.973 76.207 115.16C75.983 115.337 75.871 115.571 75.871 115.86C75.871 116.168 75.997 116.42 76.249 116.616C76.5103 116.803 77.005 117.008 77.733 117.232C78.0316 117.325 78.2556 117.4 78.405 117.456C78.5636 117.503 78.7736 117.582 79.035 117.694C79.3056 117.797 79.511 117.895 79.651 117.988C79.8003 118.081 79.9683 118.207 80.155 118.366C80.3416 118.525 80.4816 118.688 80.575 118.856C80.6776 119.024 80.7616 119.229 80.827 119.472C80.9016 119.705 80.939 119.962 80.939 120.242C80.939 121.147 80.6076 121.866 79.945 122.398C79.2916 122.93 78.4376 123.196 77.383 123.196ZM82.5491 124.4H81.7511L87.3511 111.8H88.1491L82.5491 124.4ZM92.8732 123.196C91.9025 123.196 91.0859 122.981 90.4232 122.552C89.7605 122.113 89.2939 121.521 89.0232 120.774L90.6752 119.808C91.0579 120.807 91.8092 121.306 92.9292 121.306C93.4705 121.306 93.8672 121.208 94.1192 121.012C94.3712 120.816 94.4972 120.569 94.4972 120.27C94.4972 119.925 94.3432 119.659 94.0352 119.472C93.7272 119.276 93.1765 119.066 92.3832 118.842C91.9445 118.711 91.5712 118.581 91.2632 118.45C90.9645 118.319 90.6612 118.147 90.3532 117.932C90.0545 117.708 89.8259 117.428 89.6672 117.092C89.5085 116.756 89.4292 116.364 89.4292 115.916C89.4292 115.029 89.7419 114.325 90.3672 113.802C91.0019 113.27 91.7625 113.004 92.6492 113.004C93.4425 113.004 94.1379 113.2 94.7352 113.592C95.3419 113.975 95.8132 114.511 96.1492 115.202L94.5252 116.14C94.1332 115.3 93.5079 114.88 92.6492 114.88C92.2479 114.88 91.9305 114.973 91.6972 115.16C91.4732 115.337 91.3612 115.571 91.3612 115.86C91.3612 116.168 91.4872 116.42 91.7392 116.616C92.0005 116.803 92.4952 117.008 93.2232 117.232C93.5219 117.325 93.7459 117.4 93.8952 117.456C94.0539 117.503 94.2639 117.582 94.5252 117.694C94.7959 117.797 95.0012 117.895 95.1412 117.988C95.2905 118.081 95.4585 118.207 95.6452 118.366C95.8319 118.525 95.9719 118.688 96.0652 118.856C96.1679 119.024 96.2519 119.229 96.3172 119.472C96.3919 119.705 96.4292 119.962 96.4292 120.242C96.4292 121.147 96.0979 121.866 95.4352 122.398C94.7819 122.93 93.9279 123.196 92.8732 123.196ZM102.269 123.196C100.794 123.196 99.5763 122.706 98.6149 121.726C97.6536 120.746 97.1729 119.537 97.1729 118.1C97.1729 116.653 97.6536 115.445 98.6149 114.474C99.5763 113.494 100.794 113.004 102.269 113.004C103.156 113.004 103.972 113.214 104.719 113.634C105.475 114.045 106.063 114.605 106.483 115.314L104.817 116.28C104.574 115.841 104.229 115.501 103.781 115.258C103.333 115.006 102.829 114.88 102.269 114.88C101.317 114.88 100.547 115.179 99.9589 115.776C99.3803 116.373 99.0909 117.148 99.0909 118.1C99.0909 119.043 99.3803 119.813 99.9589 120.41C100.547 121.007 101.317 121.306 102.269 121.306C102.829 121.306 103.333 121.185 103.781 120.942C104.238 120.69 104.584 120.349 104.817 119.92L106.483 120.886C106.063 121.595 105.48 122.16 104.733 122.58C103.986 122.991 103.165 123.196 102.269 123.196ZM111.016 123.196C110.045 123.196 109.228 122.981 108.566 122.552C107.903 122.113 107.436 121.521 107.166 120.774L108.818 119.808C109.2 120.807 109.952 121.306 111.072 121.306C111.613 121.306 112.01 121.208 112.262 121.012C112.514 120.816 112.64 120.569 112.64 120.27C112.64 119.925 112.486 119.659 112.178 119.472C111.87 119.276 111.319 119.066 110.526 118.842C110.087 118.711 109.714 118.581 109.406 118.45C109.107 118.319 108.804 118.147 108.496 117.932C108.197 117.708 107.968 117.428 107.81 117.092C107.651 116.756 107.572 116.364 107.572 115.916C107.572 115.029 107.884 114.325 108.51 113.802C109.144 113.27 109.905 113.004 110.792 113.004C111.585 113.004 112.28 113.2 112.878 113.592C113.484 113.975 113.956 114.511 114.292 115.202L112.668 116.14C112.276 115.3 111.65 114.88 110.792 114.88C110.39 114.88 110.073 114.973 109.84 115.16C109.616 115.337 109.504 115.571 109.504 115.86C109.504 116.168 109.63 116.42 109.882 116.616C110.143 116.803 110.638 117.008 111.366 117.232C111.664 117.325 111.888 117.4 112.038 117.456C112.196 117.503 112.406 117.582 112.668 117.694C112.938 117.797 113.144 117.895 113.284 117.988C113.433 118.081 113.601 118.207 113.788 118.366C113.974 118.525 114.114 118.688 114.208 118.856C114.31 119.024 114.394 119.229 114.46 119.472C114.534 119.705 114.572 119.962 114.572 120.242C114.572 121.147 114.24 121.866 113.578 122.398C112.924 122.93 112.07 123.196 111.016 123.196ZM118.877 123.196C117.906 123.196 117.09 122.981 116.427 122.552C115.764 122.113 115.298 121.521 115.027 120.774L116.679 119.808C117.062 120.807 117.813 121.306 118.933 121.306C119.474 121.306 119.871 121.208 120.123 121.012C120.375 120.816 120.501 120.569 120.501 120.27C120.501 119.925 120.347 119.659 120.039 119.472C119.731 119.276 119.18 119.066 118.387 118.842C117.948 118.711 117.575 118.581 117.267 118.45C116.968 118.319 116.665 118.147 116.357 117.932C116.058 117.708 115.83 117.428 115.671 117.092C115.512 116.756 115.433 116.364 115.433 115.916C115.433 115.029 115.746 114.325 116.371 113.802C117.006 113.27 117.766 113.004 118.653 113.004C119.446 113.004 120.142 113.2 120.739 113.592C121.346 113.975 121.817 114.511 122.153 115.202L120.529 116.14C120.137 115.3 119.512 114.88 118.653 114.88C118.252 114.88 117.934 114.973 117.701 115.16C117.477 115.337 117.365 115.571 117.365 115.86C117.365 116.168 117.491 116.42 117.743 116.616C118.004 116.803 118.499 117.008 119.227 117.232C119.526 117.325 119.75 117.4 119.899 117.456C120.058 117.503 120.268 117.582 120.529 117.694C120.8 117.797 121.005 117.895 121.145 117.988C121.294 118.081 121.462 118.207 121.649 118.366C121.836 118.525 121.976 118.688 122.069 118.856C122.172 119.024 122.256 119.229 122.321 119.472C122.396 119.705 122.433 119.962 122.433 120.242C122.433 121.147 122.102 121.866 121.439 122.398C120.786 122.93 119.932 123.196 118.877 123.196Z" fill="#828282"/>
<path d="M50 0L57.1946 81L89.5 90L121.794 81.0056L129 0H50Z" fill="#2196F3"/>
<path d="M113.617 26.4887L112.709 36.6643L109.967 67.1687L89.4999 72.8105L89.4829 72.8162L69.0276 67.1687L67.5999 51.2162H77.6217L78.3665 59.4905L89.4886 62.483L89.4942 62.4774L100.633 59.4849L102.151 45.698L67.1203 45.7937L66.1272 36.3662L102.992 35.933L103.737 25.8418L65.1397 25.9487L64.4907 16.5605H89.4999H114.509L113.617 26.4887Z" fill="#FAFAFA"/>
</svg>
