<svg width="180" height="168" viewBox="0 0 180 168" fill="none" xmlns="http://www.w3.org/2000/svg">
<rect width="180" height="168" fill="white"/>
<rect x="38" y="155" width="142" height="9" fill="#E5E5E5"/>
<rect x="38" y="155" width="113.6" height="9" fill="#070707"/>
<path d="M6.132 158.904C7.03733 159.445 7.49 160.234 7.49 161.27C7.49 162.175 7.17267 162.889 6.538 163.412C5.91267 163.935 5.05867 164.196 3.976 164.196C2.884 164.196 2.02533 163.935 1.4 163.412C0.774667 162.889 0.462 162.175 0.462 161.27C0.462 160.234 0.91 159.445 1.806 158.904C1.12467 158.409 0.784 157.733 0.784 156.874C0.784 155.969 1.08733 155.264 1.694 154.76C2.31 154.256 3.07067 154.004 3.976 154.004C4.88133 154.004 5.63733 154.256 6.244 154.76C6.85067 155.264 7.154 155.969 7.154 156.874C7.154 157.742 6.81333 158.419 6.132 158.904ZM4.886 156.132C4.65267 155.927 4.34933 155.824 3.976 155.824C3.60267 155.824 3.29933 155.927 3.066 156.132C2.83267 156.337 2.716 156.617 2.716 156.972C2.716 157.327 2.83267 157.611 3.066 157.826C3.29933 158.031 3.60267 158.134 3.976 158.134C4.34933 158.134 4.65267 158.031 4.886 157.826C5.11933 157.611 5.236 157.327 5.236 156.972C5.236 156.617 5.11933 156.337 4.886 156.132ZM2.814 162.026C3.11267 162.259 3.5 162.376 3.976 162.376C4.452 162.376 4.83467 162.259 5.124 162.026C5.42267 161.783 5.572 161.447 5.572 161.018C5.572 160.598 5.42267 160.271 5.124 160.038C4.83467 159.795 4.452 159.674 3.976 159.674C3.5 159.674 3.11267 159.795 2.814 160.038C2.52467 160.271 2.38 160.598 2.38 161.018C2.38 161.447 2.52467 161.783 2.814 162.026ZM12.367 164.196C11.1444 164.196 10.183 163.734 9.48303 162.81C8.79236 161.877 8.44703 160.64 8.44703 159.1C8.44703 157.56 8.79236 156.328 9.48303 155.404C10.183 154.471 11.1444 154.004 12.367 154.004C13.599 154.004 14.5604 154.471 15.251 155.404C15.9417 156.328 16.287 157.56 16.287 159.1C16.287 160.64 15.9417 161.877 15.251 162.81C14.5604 163.734 13.599 164.196 12.367 164.196ZM10.883 161.494C11.219 162.035 11.7137 162.306 12.367 162.306C13.0204 162.306 13.515 162.031 13.851 161.48C14.1964 160.929 14.369 160.136 14.369 159.1C14.369 158.055 14.1964 157.257 13.851 156.706C13.515 156.155 13.0204 155.88 12.367 155.88C11.7137 155.88 11.219 156.155 10.883 156.706C10.547 157.257 10.379 158.055 10.379 159.1C10.379 160.145 10.547 160.943 10.883 161.494ZM21.178 157.966C20.73 158.405 20.17 158.624 19.498 158.624C18.826 158.624 18.2613 158.4 17.804 157.952C17.356 157.504 17.132 156.958 17.132 156.314C17.132 155.67 17.356 155.124 17.804 154.676C18.2613 154.228 18.826 154.004 19.498 154.004C20.17 154.004 20.73 154.228 21.178 154.676C21.626 155.115 21.85 155.661 21.85 156.314C21.85 156.967 21.626 157.518 21.178 157.966ZM18.126 162.516L24.51 155.418L25.364 155.894L18.966 163.006L18.126 162.516ZM18.854 156.958C19.022 157.126 19.232 157.21 19.484 157.21C19.736 157.21 19.946 157.126 20.114 156.958C20.282 156.781 20.366 156.566 20.366 156.314C20.366 156.062 20.282 155.852 20.114 155.684C19.946 155.516 19.736 155.432 19.484 155.432C19.232 155.432 19.022 155.516 18.854 155.684C18.6953 155.852 18.616 156.062 18.616 156.314C18.616 156.566 18.6953 156.781 18.854 156.958ZM25.91 163.496C25.462 163.944 24.902 164.168 24.23 164.168C23.558 164.168 22.998 163.944 22.55 163.496C22.102 163.048 21.878 162.502 21.878 161.858C21.878 161.214 22.102 160.668 22.55 160.22C22.998 159.772 23.558 159.548 24.23 159.548C24.902 159.548 25.462 159.772 25.91 160.22C26.358 160.668 26.582 161.214 26.582 161.858C26.582 162.502 26.358 163.048 25.91 163.496ZM23.6 162.502C23.768 162.67 23.978 162.754 24.23 162.754C24.482 162.754 24.6873 162.665 24.846 162.488C25.014 162.311 25.098 162.101 25.098 161.858C25.098 161.606 25.014 161.396 24.846 161.228C24.6873 161.051 24.482 160.962 24.23 160.962C23.978 160.962 23.768 161.051 23.6 161.228C23.4413 161.396 23.362 161.606 23.362 161.858C23.362 162.11 23.4413 162.325 23.6 162.502Z" fill="#828282"/>
<path d="M76.178 115.048H72.258V117.372H76.066V119.22H72.258V123H70.326V113.2H76.178V115.048ZM78.3978 115.16C78.0991 115.16 77.8378 115.053 77.6138 114.838C77.3991 114.614 77.2918 114.353 77.2918 114.054C77.2918 113.755 77.3991 113.494 77.6138 113.27C77.8378 113.046 78.0991 112.934 78.3978 112.934C78.7058 112.934 78.9671 113.046 79.1818 113.27C79.4058 113.494 79.5178 113.755 79.5178 114.054C79.5178 114.353 79.4058 114.614 79.1818 114.838C78.9671 115.053 78.7058 115.16 78.3978 115.16ZM77.5018 123V116H79.3078V123H77.5018ZM86.3228 116H88.0868V122.664C88.0868 123.747 87.7274 124.573 87.0088 125.142C86.2994 125.711 85.4408 125.996 84.4328 125.996C83.6768 125.996 83.0094 125.851 82.4308 125.562C81.8614 125.273 81.4228 124.848 81.1148 124.288L82.6548 123.406C83.0094 124.059 83.6208 124.386 84.4888 124.386C85.0581 124.386 85.5061 124.237 85.8328 123.938C86.1594 123.639 86.3228 123.215 86.3228 122.664V121.908C85.7908 122.617 85.0441 122.972 84.0828 122.972C83.0934 122.972 82.2628 122.627 81.5908 121.936C80.9281 121.236 80.5968 120.387 80.5968 119.388C80.5968 118.399 80.9328 117.554 81.6048 116.854C82.2768 116.154 83.1028 115.804 84.0828 115.804C85.0441 115.804 85.7908 116.159 86.3228 116.868V116ZM82.9488 120.774C83.3221 121.129 83.7934 121.306 84.3628 121.306C84.9321 121.306 85.3988 121.129 85.7628 120.774C86.1361 120.41 86.3228 119.948 86.3228 119.388C86.3228 118.837 86.1361 118.385 85.7628 118.03C85.3988 117.666 84.9321 117.484 84.3628 117.484C83.7934 117.484 83.3221 117.666 82.9488 118.03C82.5848 118.385 82.4028 118.837 82.4028 119.388C82.4028 119.948 82.5848 120.41 82.9488 120.774ZM97.4664 115.804C98.2691 115.804 98.9084 116.065 99.3844 116.588C99.8698 117.111 100.112 117.811 100.112 118.688V123H98.3064V118.814C98.3064 118.394 98.2038 118.067 97.9984 117.834C97.7931 117.601 97.5038 117.484 97.1304 117.484C96.7198 117.484 96.3978 117.619 96.1644 117.89C95.9404 118.161 95.8284 118.553 95.8284 119.066V123H94.0224V118.814C94.0224 118.394 93.9198 118.067 93.7144 117.834C93.5091 117.601 93.2198 117.484 92.8464 117.484C92.4451 117.484 92.1231 117.619 91.8804 117.89C91.6471 118.161 91.5304 118.553 91.5304 119.066V123H89.7244V116H91.5304V116.742C91.9504 116.117 92.5991 115.804 93.4764 115.804C94.3351 115.804 94.9698 116.14 95.3804 116.812C95.8471 116.14 96.5424 115.804 97.4664 115.804ZM106.966 116H108.772V123H106.966V122.174C106.425 122.855 105.664 123.196 104.684 123.196C103.751 123.196 102.948 122.841 102.276 122.132C101.614 121.413 101.282 120.536 101.282 119.5C101.282 118.464 101.614 117.591 102.276 116.882C102.948 116.163 103.751 115.804 104.684 115.804C105.664 115.804 106.425 116.145 106.966 116.826V116ZM103.634 120.928C103.998 121.292 104.46 121.474 105.02 121.474C105.58 121.474 106.042 121.292 106.406 120.928C106.78 120.555 106.966 120.079 106.966 119.5C106.966 118.921 106.78 118.45 106.406 118.086C106.042 117.713 105.58 117.526 105.02 117.526C104.46 117.526 103.998 117.713 103.634 118.086C103.27 118.45 103.088 118.921 103.088 119.5C103.088 120.079 103.27 120.555 103.634 120.928Z" fill="#828282"/>
<path d="M74.9954 90.0008C83.275 90.0008 89.9907 83.2858 89.9907 75.007V60.0132H74.9954C66.7157 60.0132 60 66.7282 60 75.007C60 83.2858 66.7157 90.0008 74.9954 90.0008Z" fill="#0ACF83"/>
<path d="M60 45.0014C60 36.7226 66.7157 30.0076 74.9954 30.0076H89.9907V60.0135H74.9954C66.7157 59.9951 60 53.2801 60 45.0014Z" fill="#A259FF"/>
<path d="M60 14.9938C60 6.71501 66.7157 0 74.9954 0H89.9907V30.006H74.9954C66.7157 30.006 60 23.2726 60 14.9938Z" fill="#F24E1E"/>
<path d="M90.0093 0H105.005C113.284 0 120 6.71501 120 14.9938C120 23.2726 113.284 29.9876 105.005 29.9876H90.0093V0Z" fill="#FF7262"/>
<path d="M120 45.0014C120 53.2801 113.284 59.9951 105.005 59.9951C96.725 59.9951 90.0093 53.2801 90.0093 45.0014C90.0093 36.7226 96.725 30.0076 105.005 30.0076C113.284 30.0076 120 36.7226 120 45.0014Z" fill="#1ABCFE"/>
</svg>
