<svg width="180" height="168" viewBox="0 0 180 168" fill="none" xmlns="http://www.w3.org/2000/svg">
<rect width="180" height="168" fill="white"/>
<rect x="38" y="155" width="142" height="9" fill="#E5E5E5"/>
<rect x="38" y="155" width="121" height="9" fill="#070707"/>
<path d="M6.132 158.904C7.03733 159.445 7.49 160.234 7.49 161.27C7.49 162.175 7.17267 162.889 6.538 163.412C5.91267 163.935 5.05867 164.196 3.976 164.196C2.884 164.196 2.02533 163.935 1.4 163.412C0.774667 162.889 0.462 162.175 0.462 161.27C0.462 160.234 0.91 159.445 1.806 158.904C1.12467 158.409 0.784 157.733 0.784 156.874C0.784 155.969 1.08733 155.264 1.694 154.76C2.31 154.256 3.07067 154.004 3.976 154.004C4.88133 154.004 5.63733 154.256 6.244 154.76C6.85067 155.264 7.154 155.969 7.154 156.874C7.154 157.742 6.81333 158.419 6.132 158.904ZM4.886 156.132C4.65267 155.927 4.34933 155.824 3.976 155.824C3.60267 155.824 3.29933 155.927 3.066 156.132C2.83267 156.337 2.716 156.617 2.716 156.972C2.716 157.327 2.83267 157.611 3.066 157.826C3.29933 158.031 3.60267 158.134 3.976 158.134C4.34933 158.134 4.65267 158.031 4.886 157.826C5.11933 157.611 5.236 157.327 5.236 156.972C5.236 156.617 5.11933 156.337 4.886 156.132ZM2.814 162.026C3.11267 162.259 3.5 162.376 3.976 162.376C4.452 162.376 4.83467 162.259 5.124 162.026C5.42267 161.783 5.572 161.447 5.572 161.018C5.572 160.598 5.42267 160.271 5.124 160.038C4.83467 159.795 4.452 159.674 3.976 159.674C3.5 159.674 3.11267 159.795 2.814 160.038C2.52467 160.271 2.38 160.598 2.38 161.018C2.38 161.447 2.52467 161.783 2.814 162.026ZM11.8087 157.77C12.7513 157.77 13.5447 158.055 14.1887 158.624C14.8327 159.184 15.1547 159.968 15.1547 160.976C15.1547 161.984 14.814 162.773 14.1327 163.342C13.4607 163.911 12.6347 164.196 11.6547 164.196C10.8613 164.196 10.1613 164.019 9.55467 163.664C8.94801 163.309 8.50934 162.787 8.23867 162.096L9.89067 161.13C10.1333 161.914 10.7213 162.306 11.6547 162.306C12.1493 162.306 12.532 162.189 12.8027 161.956C13.0827 161.713 13.2227 161.387 13.2227 160.976C13.2227 160.575 13.0873 160.253 12.8167 160.01C12.546 159.767 12.1773 159.646 11.7107 159.646H8.74267L9.13467 154.2H14.6927V156.006H10.9267L10.8007 157.77H11.8087ZM19.9612 157.966C19.5132 158.405 18.9532 158.624 18.2812 158.624C17.6092 158.624 17.0445 158.4 16.5872 157.952C16.1392 157.504 15.9152 156.958 15.9152 156.314C15.9152 155.67 16.1392 155.124 16.5872 154.676C17.0445 154.228 17.6092 154.004 18.2812 154.004C18.9532 154.004 19.5132 154.228 19.9612 154.676C20.4092 155.115 20.6332 155.661 20.6332 156.314C20.6332 156.967 20.4092 157.518 19.9612 157.966ZM16.9092 162.516L23.2932 155.418L24.1472 155.894L17.7492 163.006L16.9092 162.516ZM17.6372 156.958C17.8052 157.126 18.0152 157.21 18.2672 157.21C18.5192 157.21 18.7292 157.126 18.8972 156.958C19.0652 156.781 19.1492 156.566 19.1492 156.314C19.1492 156.062 19.0652 155.852 18.8972 155.684C18.7292 155.516 18.5192 155.432 18.2672 155.432C18.0152 155.432 17.8052 155.516 17.6372 155.684C17.4785 155.852 17.3992 156.062 17.3992 156.314C17.3992 156.566 17.4785 156.781 17.6372 156.958ZM24.6932 163.496C24.2452 163.944 23.6852 164.168 23.0132 164.168C22.3412 164.168 21.7812 163.944 21.3332 163.496C20.8852 163.048 20.6612 162.502 20.6612 161.858C20.6612 161.214 20.8852 160.668 21.3332 160.22C21.7812 159.772 22.3412 159.548 23.0132 159.548C23.6852 159.548 24.2452 159.772 24.6932 160.22C25.1412 160.668 25.3652 161.214 25.3652 161.858C25.3652 162.502 25.1412 163.048 24.6932 163.496ZM22.3832 162.502C22.5512 162.67 22.7612 162.754 23.0132 162.754C23.2652 162.754 23.4705 162.665 23.6292 162.488C23.7972 162.311 23.8812 162.101 23.8812 161.858C23.8812 161.606 23.7972 161.396 23.6292 161.228C23.4705 161.051 23.2652 160.962 23.0132 160.962C22.7612 160.962 22.5512 161.051 22.3832 161.228C22.2245 161.396 22.1452 161.606 22.1452 161.858C22.1452 162.11 22.2245 162.325 22.3832 162.502Z" fill="#828282"/>
<path d="M72.8697 113.2H74.7877V123H72.8697V118.94H69.2297V123H67.2977V113.2H69.2297V117.092H72.8697V113.2ZM83.0902 113.2V115.048H80.4442V123H78.5122V115.048H75.8802V113.2H83.0902ZM93.7588 113.2V123H91.8408V116.644L89.0828 121.194H88.8588L86.1008 116.658V123H84.1688V113.2H86.1568L88.9708 117.834L91.7708 113.2H93.7588ZM97.5168 121.152H101.255V123H95.5848V113.2H97.5168V121.152ZM108.862 116.77C109.805 116.77 110.598 117.055 111.242 117.624C111.886 118.184 112.208 118.968 112.208 119.976C112.208 120.984 111.868 121.773 111.186 122.342C110.514 122.911 109.688 123.196 108.708 123.196C107.915 123.196 107.215 123.019 106.608 122.664C106.002 122.309 105.563 121.787 105.292 121.096L106.944 120.13C107.187 120.914 107.775 121.306 108.708 121.306C109.203 121.306 109.586 121.189 109.856 120.956C110.136 120.713 110.276 120.387 110.276 119.976C110.276 119.575 110.141 119.253 109.87 119.01C109.6 118.767 109.231 118.646 108.764 118.646H105.796L106.188 113.2H111.746V115.006H107.98L107.854 116.77H108.862Z" fill="#828282"/>
<path d="M50 0L57.1946 81L89.5 90L121.794 81.0056L129 0H50Z" fill="#FF5722"/>
<path d="M113.398 26.4888H89.5002H75.5342L76.437 36.6644H89.5002H112.495L109.781 67.1744L89.5002 72.8163L89.4833 72.8219L69.2142 67.1744L67.7978 51.2163H77.7292L78.4684 59.4963L89.4889 62.4832L89.5002 62.4775L100.532 59.4907L101.683 46.6038H89.5002H67.3915L64.7168 16.5607H89.5002H114.278L113.398 26.4888Z" fill="#FAFAFA"/>
</svg>
