<svg width="180" height="168" viewBox="0 0 180 168" fill="none" xmlns="http://www.w3.org/2000/svg">
<rect width="180" height="168" fill="white"/>
<rect x="38" y="155" width="142" height="9" fill="#E5E5E5"/>
<rect x="38" y="155" width="31" height="9" fill="#070707"/>
<path d="M3.92 157.77C4.86267 157.77 5.656 158.055 6.3 158.624C6.944 159.184 7.266 159.968 7.266 160.976C7.266 161.984 6.92533 162.773 6.244 163.342C5.572 163.911 4.746 164.196 3.766 164.196C2.97267 164.196 2.27267 164.019 1.666 163.664C1.05933 163.309 0.620667 162.787 0.35 162.096L2.002 161.13C2.24467 161.914 2.83267 162.306 3.766 162.306C4.26067 162.306 4.64333 162.189 4.914 161.956C5.194 161.713 5.334 161.387 5.334 160.976C5.334 160.575 5.19867 160.253 4.928 160.01C4.65733 159.767 4.28867 159.646 3.822 159.646H0.854L1.246 154.2H6.804V156.006H3.038L2.912 157.77H3.92ZM12.0725 157.966C11.6245 158.405 11.0645 158.624 10.3925 158.624C9.72048 158.624 9.15582 158.4 8.69848 157.952C8.25048 157.504 8.02648 156.958 8.02648 156.314C8.02648 155.67 8.25048 155.124 8.69848 154.676C9.15582 154.228 9.72048 154.004 10.3925 154.004C11.0645 154.004 11.6245 154.228 12.0725 154.676C12.5205 155.115 12.7445 155.661 12.7445 156.314C12.7445 156.967 12.5205 157.518 12.0725 157.966ZM9.02048 162.516L15.4045 155.418L16.2585 155.894L9.86048 163.006L9.02048 162.516ZM9.74848 156.958C9.91648 157.126 10.1265 157.21 10.3785 157.21C10.6305 157.21 10.8405 157.126 11.0085 156.958C11.1765 156.781 11.2605 156.566 11.2605 156.314C11.2605 156.062 11.1765 155.852 11.0085 155.684C10.8405 155.516 10.6305 155.432 10.3785 155.432C10.1265 155.432 9.91648 155.516 9.74848 155.684C9.58982 155.852 9.51048 156.062 9.51048 156.314C9.51048 156.566 9.58982 156.781 9.74848 156.958ZM16.8045 163.496C16.3565 163.944 15.7965 164.168 15.1245 164.168C14.4525 164.168 13.8925 163.944 13.4445 163.496C12.9965 163.048 12.7725 162.502 12.7725 161.858C12.7725 161.214 12.9965 160.668 13.4445 160.22C13.8925 159.772 14.4525 159.548 15.1245 159.548C15.7965 159.548 16.3565 159.772 16.8045 160.22C17.2525 160.668 17.4765 161.214 17.4765 161.858C17.4765 162.502 17.2525 163.048 16.8045 163.496ZM14.4945 162.502C14.6625 162.67 14.8725 162.754 15.1245 162.754C15.3765 162.754 15.5818 162.665 15.7405 162.488C15.9085 162.311 15.9925 162.101 15.9925 161.858C15.9925 161.606 15.9085 161.396 15.7405 161.228C15.5818 161.051 15.3765 160.962 15.1245 160.962C14.8725 160.962 14.6625 161.051 14.4945 161.228C14.3358 161.396 14.2565 161.606 14.2565 161.858C14.2565 162.11 14.3358 162.325 14.4945 162.502Z" fill="#828282"/>
<path d="M57.7312 123.196C56.1912 123.196 55.1132 122.575 54.4972 121.334L56.1632 120.382C56.4712 120.998 56.9938 121.306 57.7312 121.306C58.2445 121.306 58.6272 121.185 58.8792 120.942C59.1312 120.699 59.2572 120.368 59.2572 119.948V113.2H61.1752V119.948C61.1752 120.975 60.8532 121.773 60.2092 122.342C59.5652 122.911 58.7392 123.196 57.7312 123.196ZM68.0835 116H69.8895V123H68.0835V122.174C67.5422 122.855 66.7815 123.196 65.8015 123.196C64.8682 123.196 64.0655 122.841 63.3935 122.132C62.7308 121.413 62.3995 120.536 62.3995 119.5C62.3995 118.464 62.7308 117.591 63.3935 116.882C64.0655 116.163 64.8682 115.804 65.8015 115.804C66.7815 115.804 67.5422 116.145 68.0835 116.826V116ZM64.7515 120.928C65.1155 121.292 65.5775 121.474 66.1375 121.474C66.6975 121.474 67.1595 121.292 67.5235 120.928C67.8968 120.555 68.0835 120.079 68.0835 119.5C68.0835 118.921 67.8968 118.45 67.5235 118.086C67.1595 117.713 66.6975 117.526 66.1375 117.526C65.5775 117.526 65.1155 117.713 64.7515 118.086C64.3875 118.45 64.2055 118.921 64.2055 119.5C64.2055 120.079 64.3875 120.555 64.7515 120.928ZM76.1332 116H78.1212L75.4612 123H73.4032L70.7432 116H72.7312L74.4252 120.9L76.1332 116ZM84.0386 116H85.8446V123H84.0386V122.174C83.4972 122.855 82.7366 123.196 81.7566 123.196C80.8232 123.196 80.0206 122.841 79.3486 122.132C78.6859 121.413 78.3546 120.536 78.3546 119.5C78.3546 118.464 78.6859 117.591 79.3486 116.882C80.0206 116.163 80.8232 115.804 81.7566 115.804C82.7366 115.804 83.4972 116.145 84.0386 116.826V116ZM80.7066 120.928C81.0706 121.292 81.5326 121.474 82.0926 121.474C82.6526 121.474 83.1146 121.292 83.4786 120.928C83.8519 120.555 84.0386 120.079 84.0386 119.5C84.0386 118.921 83.8519 118.45 83.4786 118.086C83.1146 117.713 82.6526 117.526 82.0926 117.526C81.5326 117.526 81.0706 117.713 80.7066 118.086C80.3426 118.45 80.1606 118.921 80.1606 119.5C80.1606 120.079 80.3426 120.555 80.7066 120.928ZM90.9123 123.196C89.9416 123.196 89.1249 122.981 88.4623 122.552C87.7996 122.113 87.3329 121.521 87.0623 120.774L88.7142 119.808C89.0969 120.807 89.8483 121.306 90.9683 121.306C91.5096 121.306 91.9063 121.208 92.1583 121.012C92.4103 120.816 92.5363 120.569 92.5363 120.27C92.5363 119.925 92.3823 119.659 92.0743 119.472C91.7663 119.276 91.2156 119.066 90.4223 118.842C89.9836 118.711 89.6103 118.581 89.3023 118.45C89.0036 118.319 88.7003 118.147 88.3923 117.932C88.0936 117.708 87.8649 117.428 87.7063 117.092C87.5476 116.756 87.4683 116.364 87.4683 115.916C87.4683 115.029 87.7809 114.325 88.4062 113.802C89.0409 113.27 89.8016 113.004 90.6883 113.004C91.4816 113.004 92.1769 113.2 92.7743 113.592C93.3809 113.975 93.8523 114.511 94.1883 115.202L92.5643 116.14C92.1723 115.3 91.5469 114.88 90.6883 114.88C90.2869 114.88 89.9696 114.973 89.7363 115.16C89.5123 115.337 89.4003 115.571 89.4003 115.86C89.4003 116.168 89.5263 116.42 89.7783 116.616C90.0396 116.803 90.5343 117.008 91.2623 117.232C91.5609 117.325 91.7849 117.4 91.9343 117.456C92.0929 117.503 92.3029 117.582 92.5643 117.694C92.8349 117.797 93.0403 117.895 93.1803 117.988C93.3296 118.081 93.4976 118.207 93.6843 118.366C93.8709 118.525 94.0109 118.688 94.1043 118.856C94.2069 119.024 94.2909 119.229 94.3563 119.472C94.4309 119.705 94.4683 119.962 94.4683 120.242C94.4683 121.147 94.1369 121.866 93.4743 122.398C92.8209 122.93 91.9669 123.196 90.9123 123.196ZM99.1678 123.196C98.1131 123.196 97.2311 122.841 96.5218 122.132C95.8218 121.423 95.4718 120.545 95.4718 119.5C95.4718 118.455 95.8218 117.577 96.5218 116.868C97.2311 116.159 98.1131 115.804 99.1678 115.804C99.8491 115.804 100.47 115.967 101.03 116.294C101.59 116.621 102.014 117.059 102.304 117.61L100.75 118.52C100.61 118.231 100.395 118.002 100.106 117.834C99.8258 117.666 99.5084 117.582 99.1538 117.582C98.6124 117.582 98.1644 117.764 97.8098 118.128C97.4551 118.483 97.2778 118.94 97.2778 119.5C97.2778 120.051 97.4551 120.508 97.8098 120.872C98.1644 121.227 98.6124 121.404 99.1538 121.404C99.5178 121.404 99.8398 121.325 100.12 121.166C100.409 120.998 100.624 120.769 100.764 120.48L102.332 121.376C102.024 121.927 101.59 122.37 101.03 122.706C100.47 123.033 99.8491 123.196 99.1678 123.196ZM105.148 117.204C105.316 116.756 105.591 116.42 105.974 116.196C106.366 115.972 106.8 115.86 107.276 115.86V117.876C106.725 117.811 106.23 117.923 105.792 118.212C105.362 118.501 105.148 118.982 105.148 119.654V123H103.342V116H105.148V117.204ZM109.228 115.16C108.929 115.16 108.668 115.053 108.444 114.838C108.229 114.614 108.122 114.353 108.122 114.054C108.122 113.755 108.229 113.494 108.444 113.27C108.668 113.046 108.929 112.934 109.228 112.934C109.536 112.934 109.797 113.046 110.012 113.27C110.236 113.494 110.348 113.755 110.348 114.054C110.348 114.353 110.236 114.614 110.012 114.838C109.797 115.053 109.536 115.16 109.228 115.16ZM108.332 123V116H110.138V123H108.332ZM115.865 115.804C116.808 115.804 117.61 116.163 118.273 116.882C118.945 117.591 119.281 118.464 119.281 119.5C119.281 120.536 118.945 121.413 118.273 122.132C117.61 122.841 116.808 123.196 115.865 123.196C114.885 123.196 114.129 122.855 113.597 122.174V125.8H111.791V116H113.597V116.826C114.129 116.145 114.885 115.804 115.865 115.804ZM114.143 120.928C114.507 121.292 114.969 121.474 115.529 121.474C116.089 121.474 116.551 121.292 116.915 120.928C117.288 120.555 117.475 120.079 117.475 119.5C117.475 118.921 117.288 118.45 116.915 118.086C116.551 117.713 116.089 117.526 115.529 117.526C114.969 117.526 114.507 117.713 114.143 118.086C113.779 118.45 113.597 118.921 113.597 119.5C113.597 120.079 113.779 120.555 114.143 120.928ZM124.408 117.736H122.826V120.648C122.826 120.891 122.887 121.068 123.008 121.18C123.129 121.292 123.307 121.357 123.54 121.376C123.773 121.385 124.063 121.381 124.408 121.362V123C123.167 123.14 122.289 123.023 121.776 122.65C121.272 122.277 121.02 121.609 121.02 120.648V117.736H119.802V116H121.02V114.586L122.826 114.04V116H124.408V117.736Z" fill="#828282"/>
<path d="M120.072 90H59.9279C57.7586 90 56 88.2298 56 86.0463V3.9537C56 1.77017 57.7586 0 59.9279 0H107.57L123.999 15.7242V86.0463C124 88.2298 122.241 90 120.072 90Z" fill="#F4F4F4"/>
<path d="M107.571 0H100.507L116.936 15.7242V86.0463C116.936 88.2298 115.178 90 113.008 90H120.072C122.241 90 124 88.2298 124 86.0463V15.7242L107.571 0Z" fill="#E8E8E8"/>
<path d="M116.936 8.96347L107.57 0H59.9279C57.7586 0 56 1.77017 56 3.9537V8.96347H116.936Z" fill="#F6D867"/>
<path d="M102.413 8.96347H116.935L107.57 0H102.413V8.96347Z" fill="#E0C55E"/>
<path d="M107.57 0V11.7705C107.57 13.954 109.329 15.7242 111.498 15.7242H124L107.57 0Z" fill="#DEDCDD"/>
<path d="M56 64.9559V86.0462C56 88.2298 57.7586 90 59.9279 90H120.072C122.241 90 124 88.2298 124 86.0462V64.9559H56Z" fill="#F6D867"/>
<path d="M116.936 86.0454C116.936 88.2289 115.178 89.9991 113.008 89.9991H120.072C122.238 89.9991 123.999 88.2324 123.999 86.0454V64.9551H116.936V86.0454Z" fill="#E0C55E"/>
<path d="M83.9669 83.6761C86.4916 83.6761 88.538 81.656 88.538 79.1628V72.5442C88.538 71.9475 88.0578 71.4641 87.4657 71.4641C86.8736 71.4641 86.3933 71.9475 86.3933 72.5442V79.1628C86.3933 81.9478 82.4409 82.5809 81.6462 79.822C81.5173 79.3736 81.1073 79.0461 80.6202 79.0461C79.904 79.0461 79.393 79.7471 79.597 80.4351C80.1611 82.3392 81.9109 83.6761 83.9669 83.6761Z" fill="#495663"/>
<path d="M95.6787 81.6053C94.5041 81.6053 93.3505 81.1673 92.3293 80.6454C91.639 80.2911 90.8218 80.7992 90.8218 81.5772C90.8218 81.9693 91.0373 82.3119 91.3552 82.4911C95.3608 84.7282 100.444 83.6721 100.444 80.0659C100.444 77.3935 97.8412 76.8448 95.6078 76.4376C94.1289 76.1678 93.1288 76.0305 93.1241 75.0499C93.1206 74.2253 93.8321 73.358 95.6255 73.358C97.6979 73.358 98.6468 74.3743 99.2921 74.3743C100.358 74.3743 100.726 72.9275 99.7778 72.4187C95.0218 69.8658 90.9841 71.9854 90.9794 75.1399C90.9746 78.0128 93.7796 78.4378 95.6078 78.7386C97.2968 79.016 98.2982 79.1986 98.3057 80.1352C98.3173 81.3753 96.5226 81.6053 95.6787 81.6053Z" fill="#495663"/>
</svg>
